# xmcd
#
# Track frame offsets:
#	150
#	12677
#	25806
#	40809
#	50568
#	63923
#	78930
#	89607
#	100547
#	115780
#	130833
#	140972
#	152720
#	164270
#	175800
#	189189
#	203515
#	219270
#	229941
#	240743
#	258409
#	268921
#	280553
#	295248
#	306462
#
# Disc length: 4266 seconds
#
# Revision: 0
# Processed by: cddbd v1.4PL0 Copyright (c) Steve Scherf et al.
# Submitted via: OrangeCD 4.1
#
DISCID=6210a819
DTITLE=Kenny Rogers - The Greatest Hits Of
DYEAR=1900
DGENRE=
TTITLE0=Rueben James
TTITLE1=Ruby Don't Take your Love To Town
TTITLE2=Tell It All Brother
TTITLE3=Once Again She's Alone
TTITLE4=But You Know I Love You
TTITLE5=Heed The Call
TTITLE6=Homemade Lies
TTITLE7=Always Leaving, Always Gone
TTITLE8=For The Good Times
TTITLE9=Just Dropped In (To See What Condition My Condition Was In)
TTITLE10=Where Does Rosie Go
TTITLE11=Elvira
TTITLE12=Poem For My Little Lady
TTITLE13=Me And Bobby McGee
TTITLE14=Shine On Ruby Mountain
TTITLE15=Sunshine
TTITLE16=Tulsa Turnaround
TTITLE17=She Even Woke Me Up To Say Goodbye
TTITLE18=We All Got To Help Each Other
TTITLE19=Something's Burning
TTITLE20=Ticket To Nowhere
TTITLE21=What Am I Gonna Do
TTITLE22=All God's Lonely Creatures
TTITLE23=If Wishes Were Horses
TTITLE24=I'm Gonna Sing You A Sad Song Suzie
EXTD=
EXTT0=
EXTT1=
EXTT2=
EXTT3=
EXTT4=
EXTT5=
EXTT6=
EXTT7=
EXTT8=
EXTT9=
EXTT10=
EXTT11=
EXTT12=
EXTT13=
EXTT14=
EXTT15=
EXTT16=
EXTT17=
EXTT18=
EXTT19=
EXTT20=
EXTT21=
EXTT22=
EXTT23=
EXTT24=
PLAYORDER=
